<?xml version="1.0" standalone="no"?>
<!DOCTYPE svg PUBLIC "-//W3C//DTD SVG 20010904//EN"
 "http://www.w3.org/TR/2001/REC-SVG-20010904/DTD/svg10.dtd">
<svg version="1.0" xmlns="http://www.w3.org/2000/svg"
 width="1113.000000pt" height="660.000000pt" viewBox="0 0 1113.000000 660.000000"
 preserveAspectRatio="xMidYMid meet">

<g transform="translate(0.000000,660.000000) scale(0.100000,-0.100000)"
fill="#000000" stroke="none">
<path d="M1650 3300 l0 -1650 3625 0 3625 0 0 825 0 825 285 0 285 0 0 825 0
825 -3910 0 -3910 0 0 -1650z m4720 825 l0 -655 -45 0 -45 0 0 655 0 655 45 0
45 0 0 -655z m-1310 0 l0 -455 -50 0 -50 0 0 50 c0 28 -2 50 -5 50 -2 0 -24
-20 -49 -44 -133 -134 -368 -78 -451 106 -23 52 -28 75 -28 152 -1 119 19 179
84 251 110 120 297 129 398 20 22 -24 42 -40 45 -37 3 3 6 86 6 184 l0 178 50
0 50 0 0 -455z m2315 405 l0 -45 -117 -3 c-138 -3 -141 -5 -136 -105 l3 -62
133 -3 132 -3 0 -44 0 -45 -135 0 -135 0 0 -275 0 -275 -50 0 -50 0 0 275 0
275 -100 0 -100 0 0 45 0 45 100 0 100 0 0 99 c0 85 3 102 21 125 32 41 52 45
199 43 l135 -2 0 -45z m-4727 -177 l-3 -56 -244 -82 c-135 -45 -246 -86 -248
-91 -2 -5 109 -47 247 -92 l250 -84 0 -54 c0 -30 -2 -54 -4 -54 -13 0 -532
182 -538 188 -5 5 -7 51 -6 102 l3 93 265 92 c146 51 269 93 273 94 4 1 7 -25
5 -56z m630 -38 c28 -9 70 -30 93 -48 42 -32 92 -108 104 -158 6 -25 4 -27
-37 -35 -24 -5 -47 -8 -51 -9 -5 0 -15 17 -22 39 -58 167 -301 170 -386 4 -28
-55 -34 -135 -15 -199 55 -192 332 -215 402 -34 9 25 22 45 28 45 29 0 86 -22
86 -34 0 -29 -64 -138 -94 -161 -83 -64 -195 -87 -294 -61 -107 27 -173 81
-218 179 -24 54 -26 67 -22 160 3 85 8 110 30 153 26 50 84 111 130 135 74 40
180 49 266 24z m826 -19 c62 -31 114 -87 148 -162 18 -40 23 -66 22 -144 0
-81 -4 -103 -26 -151 -32 -71 -86 -125 -157 -158 -46 -21 -71 -25 -136 -25
-65 0 -90 4 -136 25 -71 33 -125 87 -157 158 -36 77 -38 221 -5 294 64 138
164 200 314 194 59 -3 90 -10 133 -31z m1573 6 c102 -53 154 -137 161 -259 l5
-83 -257 0 -256 0 0 -27 c0 -16 9 -46 19 -68 42 -94 150 -136 266 -104 42 12
115 78 115 104 0 8 5 15 11 15 24 0 89 -24 89 -32 0 -24 -44 -90 -84 -125 -56
-49 -117 -68 -216 -68 -130 1 -225 65 -282 191 -31 70 -32 228 -2 295 38 81
105 143 193 176 55 20 185 12 238 -15z m2329 12 c96 -32 166 -101 200 -196 22
-61 21 -195 -2 -260 -39 -106 -147 -190 -265 -203 -113 -14 -238 41 -297 128
-48 71 -57 104 -57 212 0 91 3 105 30 159 72 142 241 211 391 160z m879 -3
c74 -34 125 -114 125 -196 0 -36 -16 -45 -77 -45 -31 0 -33 2 -33 33 0 71 -62
127 -142 127 -58 0 -104 -30 -128 -83 -17 -36 -20 -66 -20 -209 l0 -168 80 0
80 0 0 -50 0 -50 -205 0 -205 0 0 50 0 50 70 0 70 0 0 225 0 225 -65 0 -65 0
0 45 0 45 120 0 120 0 0 -42 0 -43 33 37 c17 21 48 44 67 52 48 21 127 19 175
-3z m-6237 -594 l3 -47 -273 2 -273 3 -3 33 c-6 65 -19 63 275 60 l268 -3 3
-48z m392 -794 c0 -24 112 -804 118 -828 l9 -30 6 25 c3 14 31 205 62 424 31
220 58 403 61 408 3 4 50 8 105 8 l99 0 0 -455 0 -455 -50 0 -50 0 0 432 c0
237 -3 428 -7 424 -5 -4 -35 -197 -68 -429 l-60 -422 -100 0 -99 0 -61 422
c-33 232 -63 425 -67 429 -5 4 -8 -187 -8 -424 l0 -432 -50 0 -50 0 0 455 0
455 105 0 c58 0 105 -3 105 -7z m1758 -400 l2 -403 115 0 115 0 0 -50 0 -50
-285 0 -285 0 0 50 0 50 115 0 115 0 0 355 0 355 -110 0 -110 0 0 50 0 50 163
-2 162 -3 3 -402z m1052 -49 l0 -455 -52 3 -53 3 -3 47 -3 46 -44 -43 c-106
-106 -291 -94 -400 27 -90 100 -109 280 -45 414 84 173 331 221 450 87 l40
-46 0 180 c0 99 3 183 7 186 3 4 28 7 55 7 l48 0 0 -456z m-3431 205 c-4 -109
-3 -118 11 -97 8 13 42 52 77 88 l62 65 30 -29 c17 -17 31 -35 31 -41 0 -16
-100 -110 -137 -129 -18 -9 -33 -18 -33 -19 0 -2 54 -1 120 1 l120 4 0 -47 0
-47 -121 3 c-109 4 -118 3 -97 -11 13 -8 52 -43 88 -77 l65 -62 -33 -33 -33
-33 -67 70 c-37 39 -72 78 -77 88 -7 13 -9 -18 -6 -102 l3 -121 -47 0 -47 0 4
120 c2 66 3 120 1 120 -1 0 -10 -15 -19 -32 -19 -38 -113 -138 -129 -138 -6 0
-24 14 -41 31 l-29 30 66 62 c36 34 76 69 88 77 21 14 12 15 -98 11 l-121 -3
0 47 0 47 122 -4 c89 -3 116 -1 102 6 -10 6 -50 41 -89 78 l-70 67 33 33 33
33 67 -70 c37 -39 72 -79 78 -89 7 -14 9 13 6 102 l-4 122 47 0 47 0 -3 -121z
m1685 -33 c62 -31 114 -87 148 -162 18 -40 23 -66 22 -144 0 -81 -4 -103 -26
-151 -32 -71 -86 -125 -157 -158 -46 -21 -71 -25 -136 -25 -65 0 -90 4 -136
25 -71 33 -125 87 -157 158 -36 77 -38 221 -5 294 64 138 164 200 314 194 59
-3 90 -10 133 -31z m2358 7 c52 -24 121 -90 148 -143 25 -49 43 -155 35 -210
-12 -85 -35 -139 -86 -194 -67 -73 -129 -100 -234 -100 -135 -1 -230 56 -287
172 -31 62 -33 73 -33 167 1 88 4 106 27 151 49 94 102 141 191 170 59 20 180
13 239 -13z m1483 16 c26 -7 57 -28 88 -60 l47 -49 0 50 0 50 55 0 55 0 2
-267 3 -268 28 -3 c25 -3 27 -6 27 -53 l0 -49 -49 0 c-59 0 -106 33 -116 80
l-7 30 -45 -50 c-35 -39 -56 -53 -100 -66 -140 -41 -289 39 -344 185 -18 47
-20 72 -17 161 3 90 8 113 31 157 67 130 203 190 342 152z m-937 -306 c53
-161 100 -293 104 -293 4 0 51 133 104 295 l97 295 58 0 c33 0 59 -3 59 -7 0
-5 -49 -147 -108 -318 l-108 -310 -101 -3 -100 -3 -21 58 c-33 92 -202 577
-202 580 0 2 27 3 61 1 l60 -3 97 -292z"/>
<path d="M4660 4215 c-46 -21 -77 -51 -103 -100 -31 -58 -31 -193 1 -252 63
-119 218 -148 319 -60 110 97 100 313 -20 393 -52 35 -142 43 -197 19z"/>
<path d="M3870 4214 c-81 -35 -130 -119 -130 -224 0 -141 91 -240 220 -240 50
0 140 47 167 89 67 100 53 264 -28 338 -56 51 -158 68 -229 37z"/>
<path d="M5445 4211 c-48 -22 -79 -54 -100 -103 -8 -21 -15 -40 -15 -43 0 -3
93 -5 206 -5 l205 0 -7 23 c-11 38 -31 71 -56 94 -57 53 -159 68 -233 34z"/>
<path d="M7815 4211 c-82 -38 -125 -111 -125 -213 0 -91 16 -137 64 -184 68
-69 169 -82 257 -32 147 83 141 345 -10 425 -54 28 -130 30 -186 4z"/>
<path d="M5450 2565 c-46 -21 -77 -51 -103 -100 -17 -32 -22 -57 -22 -125 0
-92 18 -142 67 -187 27 -26 98 -53 137 -53 79 0 159 52 192 125 29 63 26 178
-6 241 -36 70 -92 107 -170 111 -39 2 -72 -2 -95 -12z"/>
<path d="M3870 2564 c-81 -35 -130 -119 -130 -224 0 -141 91 -240 220 -240 50
0 140 47 167 89 67 100 53 264 -28 338 -56 51 -158 68 -229 37z"/>
<path d="M6235 2562 c-83 -39 -125 -114 -125 -222 0 -77 14 -120 55 -168 91
-106 265 -89 340 32 27 45 30 57 30 135 0 76 -3 91 -28 134 -40 67 -94 100
-171 104 -44 3 -72 -2 -101 -15z"/>
<path d="M7795 2564 c-84 -43 -120 -112 -119 -229 1 -61 6 -90 22 -121 67
-131 232 -152 329 -41 42 47 56 104 51 194 -6 92 -42 155 -107 190 -52 27
-131 31 -176 7z"/>
</g>
</svg>
