<?xml version="1.0" encoding="utf-8"?>
<!-- Generator: Adobe Illustrator 21.0.2, SVG Export Plug-In . SVG Version: 6.00 Build 0)  -->
<svg version="1.1" id="Layer_1" xmlns="http://www.w3.org/2000/svg" xmlns:xlink="http://www.w3.org/1999/xlink" x="0px" y="0px"
	 viewBox="0 0 260.7 110" style="enable-background:new 0 0 260.7 110;" xml:space="preserve">
<style type="text/css">
	.st0{fill:#024BBB;}
	.st1{fill:#FFFFFF;}
</style>
<title>logo_cfm_main_color</title>
<desc>Created with Sketch.</desc>
<g id="logo_cfm_main_color">
	<path id="Combined-Shape" class="st0" d="M260.7,0v55h-19v55H0V51.1V0H260.7z"/>
	<path id="Combined-Shape_1_" class="st1" d="M139.9,67.5v30.1h-3.4v-3.3H136c-0.3,0.7-0.8,1.2-1.3,1.7c-0.5,0.5-1.1,0.9-1.7,1.2
		c-0.6,0.3-1.3,0.6-2,0.7c-0.7,0.2-1.3,0.2-2,0.2c-1.4,0-2.8-0.2-4-0.7c-1.2-0.5-2.3-1.2-3.2-2.1c-0.9-0.9-1.7-2.1-2.2-3.4
		c-0.5-1.4-0.8-2.9-0.8-4.7v-0.7c0-1.7,0.3-3.3,0.8-4.6c0.5-1.4,1.3-2.5,2.2-3.4c0.9-0.9,2-1.6,3.2-2.1c1.2-0.5,2.5-0.7,3.9-0.7
		c1.5,0,2.8,0.3,4.1,1c1.3,0.6,2.3,1.6,2.9,3h0.5V67.5H139.9z M207.2,75.7c1.5,0,2.8,0.3,4,1c1.2,0.6,2.1,1.6,2.8,3h0.5v-3.4h3.4
		v16.9c0,0.9,0.4,1.3,1.2,1.3h1.1v3.1h-2.3c-1,0-1.8-0.3-2.4-0.9c-0.6-0.6-0.9-1.4-0.9-2.4V94H214c-0.7,1.4-1.6,2.5-2.9,3.2
		c-1.2,0.7-2.5,1-3.8,1c-1.4,0-2.7-0.2-3.9-0.7c-1.2-0.5-2.3-1.2-3.2-2.1c-0.9-0.9-1.6-2.1-2.1-3.4c-0.5-1.3-0.8-2.9-0.8-4.7v-0.7
		c0-1.7,0.3-3.3,0.8-4.6c0.5-1.3,1.2-2.5,2.1-3.4c0.9-0.9,2-1.6,3.2-2.1C204.5,75.9,205.8,75.7,207.2,75.7z M155.8,75.7
		c1.4,0,2.8,0.2,4,0.7c1.3,0.5,2.4,1.2,3.4,2.1c1,0.9,1.8,2.1,2.4,3.5c0.6,1.4,0.9,2.9,0.9,4.7v0.5c0,1.8-0.3,3.3-0.9,4.7
		c-0.6,1.4-1.4,2.5-2.3,3.4c-1,0.9-2.1,1.6-3.4,2.1s-2.7,0.7-4.1,0.7c-1.4,0-2.8-0.2-4.1-0.7c-1.3-0.5-2.4-1.2-3.4-2.1
		c-1-0.9-1.8-2.1-2.3-3.4c-0.6-1.4-0.9-2.9-0.9-4.7v-0.5c0-1.7,0.3-3.3,0.9-4.7c0.6-1.4,1.4-2.5,2.4-3.5c1-0.9,2.1-1.7,3.4-2.1
		C153,75.9,154.4,75.7,155.8,75.7z M76.8,75.7c1.4,0,2.8,0.2,4,0.7s2.4,1.2,3.4,2.1c1,0.9,1.8,2.1,2.4,3.5c0.6,1.4,0.9,2.9,0.9,4.7
		v0.5c0,1.8-0.3,3.3-0.9,4.7c-0.6,1.4-1.4,2.5-2.3,3.4c-1,0.9-2.1,1.6-3.4,2.1s-2.7,0.7-4.1,0.7c-1.4,0-2.8-0.2-4.1-0.7
		c-1.3-0.5-2.4-1.2-3.4-2.1c-1-0.9-1.8-2.1-2.3-3.4c-0.6-1.4-0.9-2.9-0.9-4.7v-0.5c0-1.7,0.3-3.3,0.9-4.7c0.6-1.4,1.4-2.5,2.4-3.5
		c1-0.9,2.1-1.7,3.4-2.1C74.1,75.9,75.4,75.7,76.8,75.7z M46.2,67.5l4,28.6h0.5l4-28.6h6.9v30.1h-3.4V69h-0.5l-4,28.6h-6.5l-4-28.6
		h-0.5v28.6h-3.4V67.5H46.2z M104.8,67.5v27h7.7v3.1H93.7v-3.1h7.7V70.6H94v-3.1H104.8z M175.3,76.3l6.5,19.8h0.5l6.5-19.8h4
		l-7.4,21.3h-6.6l-7.4-21.3H175.3z M129.4,78.9c-1,0-1.9,0.2-2.8,0.6c-0.9,0.4-1.6,0.9-2.3,1.6c-0.6,0.7-1.1,1.5-1.5,2.5
		c-0.4,0.9-0.5,2-0.5,3.1v0.7c0,1.2,0.2,2.3,0.5,3.2c0.4,0.9,0.9,1.8,1.5,2.4c0.6,0.7,1.4,1.2,2.3,1.5c0.9,0.4,1.8,0.5,2.8,0.5
		c1,0,1.9-0.2,2.8-0.6c0.9-0.4,1.6-0.9,2.3-1.6c0.6-0.7,1.2-1.5,1.5-2.5c0.4-1,0.6-2,0.6-3.2v-0.5c0-1.1-0.2-2.2-0.6-3.2
		c-0.4-1-0.9-1.8-1.5-2.5c-0.6-0.7-1.4-1.2-2.3-1.6C131.3,79,130.4,78.9,129.4,78.9z M155.8,78.9c-1,0-1.9,0.2-2.8,0.6
		c-0.9,0.4-1.7,0.9-2.3,1.6c-0.7,0.7-1.2,1.5-1.5,2.5c-0.4,1-0.6,2-0.6,3.2v0.5c0,1.2,0.2,2.3,0.6,3.2c0.4,1,0.9,1.8,1.5,2.5
		c0.7,0.7,1.4,1.2,2.3,1.6c0.9,0.4,1.8,0.5,2.9,0.5s2-0.2,2.9-0.5c0.9-0.4,1.6-0.9,2.3-1.6c0.7-0.7,1.2-1.5,1.5-2.5
		c0.4-1,0.6-2,0.6-3.2v-0.5c0-1.1-0.2-2.2-0.6-3.2c-0.4-1-0.9-1.8-1.5-2.5c-0.7-0.7-1.4-1.2-2.3-1.6C157.7,79,156.8,78.9,155.8,78.9
		z M207.6,78.9c-1,0-1.9,0.2-2.8,0.6c-0.8,0.4-1.6,0.9-2.2,1.6c-0.6,0.7-1.1,1.5-1.4,2.5c-0.3,1-0.5,2-0.5,3.2v0.7
		c0,2.4,0.6,4.3,1.9,5.7c1.3,1.4,2.9,2,5,2c1,0,1.9-0.2,2.8-0.6c0.8-0.4,1.6-0.9,2.2-1.6c0.6-0.7,1.1-1.5,1.4-2.5
		c0.3-1,0.5-2,0.5-3.2v-0.5c0-1.1-0.2-2.2-0.5-3.2c-0.3-1-0.8-1.8-1.4-2.5c-0.6-0.7-1.3-1.2-2.2-1.6C209.5,79,208.6,78.9,207.6,78.9
		z M76.8,78.9c-1,0-2,0.2-2.8,0.6c-0.9,0.4-1.7,0.9-2.3,1.6c-0.7,0.7-1.2,1.5-1.5,2.5c-0.4,1-0.6,2-0.6,3.2v0.5
		c0,1.2,0.2,2.3,0.6,3.2c0.4,1,0.9,1.8,1.5,2.5c0.7,0.7,1.4,1.2,2.3,1.6c0.9,0.4,1.8,0.5,2.9,0.5c1,0,2-0.2,2.9-0.5
		c0.9-0.4,1.6-0.9,2.3-1.6c0.7-0.7,1.2-1.5,1.5-2.5c0.4-1,0.6-2,0.6-3.2v-0.5c0-1.1-0.2-2.2-0.6-3.2c-0.4-1-0.9-1.8-1.5-2.5
		c-0.7-0.7-1.4-1.2-2.3-1.6C78.8,79,77.8,78.9,76.8,78.9z M25.7,71.9v5.8l-0.6,1.9l0.5,0.2l1.2-2.2l3.8-3.8l2.2,2.2l-3.8,3.8
		l-2.2,1.2l0.2,0.5l1.9-0.6h5.8v3.1h-5.8l-1.9-0.6L26.9,84l2.2,1.2l3.8,3.8l-2.2,2.2l-3.8-3.8l-1.2-2.1l-0.5,0.2l0.6,1.9v5.8h-3.1
		v-5.8l0.6-1.9l-0.5-0.2l-1.2,2.1l-3.8,3.8L15.6,89l3.8-3.8l2.2-1.2l-0.2-0.5l-1.9,0.6h-5.8V81h5.8l1.9,0.6l0.2-0.5l-2.2-1.2
		l-3.8-3.8l2.2-2.2l3.8,3.8l1.2,2.2l0.5-0.2l-0.6-1.9v-5.8H25.7z M157.3,5.8v43.5h-3.1V5.8H157.3z M113.6,12.5v30.1h-3.4v-3.3h-0.5
		c-0.3,0.7-0.8,1.2-1.3,1.7c-0.5,0.5-1.1,0.9-1.7,1.2c-0.6,0.3-1.3,0.6-2,0.7c-0.7,0.2-1.3,0.2-2,0.2c-1.4,0-2.8-0.2-4-0.7
		c-1.2-0.5-2.3-1.2-3.2-2.1c-0.9-0.9-1.7-2.1-2.2-3.4c-0.5-1.4-0.8-2.9-0.8-4.7v-0.7c0-1.7,0.3-3.3,0.8-4.6c0.5-1.4,1.3-2.5,2.2-3.4
		c0.9-0.9,2-1.6,3.2-2.1c1.2-0.5,2.5-0.7,3.9-0.7c1.5,0,2.8,0.3,4.1,1c1.3,0.6,2.3,1.6,2.9,3h0.5V12.5H113.6z M50.9,20.7
		c1.3,0,2.6,0.2,3.7,0.6c1.1,0.4,2.2,1,3,1.7c0.9,0.7,1.6,1.6,2.1,2.6c0.6,1,0.9,2.1,1.1,3.3l-3.4,0.8c-0.1-0.7-0.3-1.5-0.6-2.2
		c-0.3-0.7-0.8-1.3-1.3-1.8c-0.6-0.5-1.2-1-2-1.3c-0.8-0.3-1.7-0.5-2.8-0.5c-1,0-2,0.2-2.9,0.6c-0.9,0.4-1.7,0.9-2.4,1.6
		c-0.7,0.7-1.2,1.5-1.6,2.5c-0.4,1-0.6,2-0.6,3.2v0.5c0,1.2,0.2,2.3,0.6,3.2c0.4,1,0.9,1.8,1.6,2.4c0.7,0.7,1.5,1.2,2.4,1.5
		c0.9,0.4,1.9,0.5,3,0.5c1.1,0,2-0.2,2.8-0.5c0.8-0.3,1.5-0.8,2-1.3c0.6-0.5,1-1.1,1.3-1.8c0.3-0.7,0.6-1.4,0.7-2.1l3.4,0.8
		c-0.2,1.2-0.6,2.3-1.2,3.3c-0.6,1-1.3,1.9-2.1,2.6c-0.9,0.7-1.9,1.3-3,1.7c-1.1,0.4-2.4,0.6-3.8,0.6c-1.5,0-2.9-0.2-4.2-0.7
		c-1.3-0.5-2.5-1.2-3.5-2.1c-1-0.9-1.8-2.1-2.4-3.4c-0.6-1.3-0.9-2.9-0.9-4.6v-0.5c0-1.7,0.3-3.3,0.9-4.6c0.6-1.4,1.4-2.5,2.4-3.5
		c1-0.9,2.2-1.7,3.5-2.2C48,20.9,49.4,20.7,50.9,20.7z M76.8,20.7c1.4,0,2.8,0.2,4,0.7s2.4,1.2,3.4,2.2c1,0.9,1.8,2.1,2.4,3.5
		c0.6,1.4,0.9,2.9,0.9,4.7v0.5c0,1.8-0.3,3.3-0.9,4.7c-0.6,1.4-1.4,2.5-2.3,3.4c-1,0.9-2.1,1.6-3.4,2.1s-2.7,0.7-4.1,0.7
		c-1.4,0-2.8-0.2-4.1-0.7c-1.3-0.5-2.4-1.2-3.4-2.1c-1-0.9-1.8-2.1-2.3-3.4c-0.6-1.4-0.9-2.9-0.9-4.7v-0.5c0-1.7,0.3-3.3,0.9-4.7
		c0.6-1.4,1.4-2.5,2.4-3.5c1-0.9,2.1-1.7,3.4-2.2C74.1,20.9,75.4,20.7,76.8,20.7z M129.6,20.7c1.7,0,3.3,0.3,4.5,1
		c1.3,0.6,2.3,1.4,3.1,2.4c0.8,0.9,1.4,2,1.8,3.1c0.4,1.1,0.6,2.2,0.6,3.1V33h-17.2c0.1,2.1,0.7,3.8,2,5.1c1.2,1.3,3,1.9,5.2,1.9
		c1,0,1.9-0.1,2.6-0.3c0.7-0.2,1.4-0.5,1.9-0.9c0.5-0.4,1-0.9,1.3-1.4c0.3-0.5,0.6-1.1,0.8-1.7l3.2,0.9c-0.6,2-1.7,3.6-3.3,4.8
		c-1.6,1.2-3.8,1.9-6.6,1.9c-1.5,0-2.9-0.3-4.2-0.8c-1.3-0.5-2.4-1.3-3.3-2.3c-0.9-1-1.6-2.1-2.1-3.5c-0.5-1.3-0.8-2.8-0.8-4.5v-1
		c0-1.5,0.3-2.9,0.8-4.2c0.5-1.3,1.3-2.4,2.2-3.3c0.9-0.9,2.1-1.7,3.3-2.2C126.8,20.9,128.1,20.7,129.6,20.7z M208.4,20.7
		c1.4,0,2.8,0.2,4,0.7c1.3,0.5,2.4,1.2,3.4,2.2c1,0.9,1.8,2.1,2.4,3.5c0.6,1.4,0.9,2.9,0.9,4.7v0.5c0,1.8-0.3,3.3-0.9,4.7
		c-0.6,1.4-1.4,2.5-2.3,3.4c-1,0.9-2.1,1.6-3.4,2.1c-1.3,0.5-2.7,0.7-4.1,0.7c-1.4,0-2.8-0.2-4.1-0.7s-2.4-1.2-3.4-2.1
		c-1-0.9-1.8-2.1-2.3-3.4c-0.6-1.4-0.9-2.9-0.9-4.7v-0.5c0-1.7,0.3-3.3,0.9-4.7c0.6-1.4,1.4-2.5,2.4-3.5c1-0.9,2.1-1.7,3.4-2.2
		C205.7,20.9,207,20.7,208.4,20.7z M33.2,39.5v3.1h-18v-3.1H33.2z M190.8,12.5v3.1h-7.2c-0.8,0-1.2,0.4-1.2,1.3v4.4h8.9v3.1h-8.9
		v18.2H179V24.4h-6.6v-3.1h6.6v-5.4c0-1,0.3-1.8,0.9-2.4c0.6-0.6,1.4-0.9,2.4-0.9H190.8z M238.1,20.7c2.1,0,3.9,0.7,5.2,2.1
		c1.3,1.4,2,3.5,2.1,6.1l-3.5,0.5c0-2-0.5-3.4-1.4-4.3c-0.9-0.9-2.1-1.3-3.5-1.3c-0.9,0-1.7,0.2-2.3,0.5c-0.6,0.3-1.2,0.8-1.6,1.4
		c-0.4,0.6-0.7,1.3-0.9,2.1c-0.2,0.8-0.3,1.7-0.3,2.6v9h5.4v3.1h-13.7v-3.1h4.9V24.4h-4.4v-3.1h7.7v2.8h0.5c0.5-1.2,1.3-2,2.3-2.6
		C235.7,20.9,236.8,20.7,238.1,20.7z M103.1,23.8c-1,0-1.9,0.2-2.8,0.6c-0.9,0.4-1.6,0.9-2.3,1.6c-0.6,0.7-1.1,1.5-1.5,2.5
		c-0.4,0.9-0.5,2-0.5,3.1v0.7c0,1.2,0.2,2.3,0.5,3.2c0.4,0.9,0.9,1.8,1.5,2.4c0.6,0.7,1.4,1.2,2.3,1.5c0.9,0.4,1.8,0.5,2.8,0.5
		c1,0,1.9-0.2,2.8-0.6c0.9-0.4,1.6-0.9,2.3-1.6c0.6-0.7,1.2-1.5,1.5-2.5c0.4-1,0.6-2,0.6-3.2v-0.5c0-1.1-0.2-2.2-0.6-3.2
		c-0.4-1-0.9-1.8-1.5-2.5c-0.6-0.7-1.4-1.2-2.3-1.6C105,24,104.1,23.8,103.1,23.8z M208.4,23.8c-1,0-1.9,0.2-2.8,0.6
		c-0.9,0.4-1.7,0.9-2.3,1.6c-0.7,0.7-1.2,1.5-1.5,2.5c-0.4,1-0.6,2-0.6,3.2v0.5c0,1.2,0.2,2.3,0.6,3.2c0.4,1,0.9,1.8,1.5,2.5
		c0.7,0.7,1.4,1.2,2.3,1.6c0.9,0.4,1.8,0.5,2.9,0.5c1,0,2-0.2,2.9-0.5c0.9-0.4,1.6-0.9,2.3-1.6c0.7-0.7,1.2-1.5,1.5-2.5
		c0.4-1,0.6-2,0.6-3.2v-0.5c0-1.1-0.2-2.2-0.6-3.2c-0.4-1-0.9-1.8-1.5-2.5c-0.7-0.7-1.4-1.2-2.3-1.6C210.4,24,209.4,23.8,208.4,23.8
		z M76.8,23.8c-1,0-2,0.2-2.8,0.6c-0.9,0.4-1.7,0.9-2.3,1.6c-0.7,0.7-1.2,1.5-1.5,2.5c-0.4,1-0.6,2-0.6,3.2v0.5
		c0,1.2,0.2,2.3,0.6,3.2c0.4,1,0.9,1.8,1.5,2.5c0.7,0.7,1.4,1.2,2.3,1.6c0.9,0.4,1.8,0.5,2.9,0.5c1,0,2-0.2,2.9-0.5
		c0.9-0.4,1.6-0.9,2.3-1.6c0.7-0.7,1.2-1.5,1.5-2.5c0.4-1,0.6-2,0.6-3.2v-0.5c0-1.1-0.2-2.2-0.6-3.2c-0.4-1-0.9-1.8-1.5-2.5
		c-0.7-0.7-1.4-1.2-2.3-1.6C78.8,24,77.8,23.8,76.8,23.8z M33.2,18.1v3.6l-16.7,5.6v0.5l16.7,5.6V37l-18-6.2v-6.5L33.2,18.1z
		 M129.6,23.8c-0.9,0-1.8,0.2-2.6,0.5c-0.8,0.3-1.5,0.7-2.1,1.3c-0.6,0.5-1.1,1.2-1.5,1.9c-0.4,0.7-0.6,1.5-0.8,2.4h13.8
		c-0.1-0.9-0.3-1.7-0.7-2.5c-0.4-0.7-0.9-1.4-1.5-1.9c-0.6-0.5-1.3-0.9-2.1-1.2C131.3,24,130.5,23.8,129.6,23.8z"/>
</g>
</svg>
