<svg xmlns="http://www.w3.org/2000/svg" viewBox="0 0 411.67 109.47"><defs><style>.cls-1{fill:#fff;}.cls-2{fill:#fdd033;}</style></defs><title>Asset 4</title><g id="Layer_2" data-name="Layer 2"><g id="Layer_1-2" data-name="Layer 1"><path class="cls-1" d="M176.21,14.36h5.94l-12.26,35h-6l-12.21-35h5.89l7.3,21.76q.57,1.56,1.22,4t.84,3.65q.31-1.82,1-4.21T168.91,36Z"/><path class="cls-1" d="M220.3,31.81q0,8.55-4.27,13.29t-12.1,4.74q-7.93,0-12.18-4.7T187.5,31.76q0-8.67,4.27-13.31T204,13.81q7.81,0,12.07,4.72T220.3,31.81Zm-26.72,0q0,6.47,2.61,9.8T203.92,45q5.1,0,7.7-3.3t2.6-9.84q0-6.44-2.57-9.77T204,18.72q-5.15,0-7.77,3.33T193.58,31.81Z"/><path class="cls-1" d="M242.36,49.36h-5.72V19.27h-10.3V14.36h26.31v4.91h-10.3Z"/><path class="cls-1" d="M184.74,79.68q0,8.67-4.81,13.25t-13.86,4.58h-9.79v-35h10.82q8.36,0,13,4.5T184.74,79.68Zm-6,.19q0-12.57-11.76-12.57h-5V92.7h4.07Q178.7,92.7,178.7,79.87Z"/><path class="cls-1" d="M194.71,97.51v-35h5.72v35Z"/><path class="cls-1" d="M233.84,97.51l-3.5-9.72H217l-3.42,9.72h-6l13.1-35.15h6.23l13.1,35.15Zm-5-14.65-3.28-9.53q-.36-1-1-3t-.87-3a53.61,53.61,0,0,1-1.89,6.44l-3.16,9.12Z"/><path class="cls-1" d="M267.18,88a8.81,8.81,0,0,1-3.38,7.33Q260.43,98,254.49,98a22.21,22.21,0,0,1-9.72-1.84V90.74a26.4,26.4,0,0,0,5.09,1.77,21.59,21.59,0,0,0,5,.65,8,8,0,0,0,5-1.29,4.22,4.22,0,0,0,1.62-3.47A4.35,4.35,0,0,0,260,85.06a22.35,22.35,0,0,0-6.13-3.23q-4.79-1.94-6.75-4.43a9.37,9.37,0,0,1-2-6,8.38,8.38,0,0,1,3.11-6.9A12.91,12.91,0,0,1,256.64,62a24.56,24.56,0,0,1,10,2.2l-1.82,4.67a21.87,21.87,0,0,0-8.33-2,6.4,6.4,0,0,0-4.21,1.21,4,4,0,0,0-1.44,3.2,4.5,4.5,0,0,0,.57,2.33,5.86,5.86,0,0,0,1.89,1.83,32,32,0,0,0,4.74,2.28,26,26,0,0,1,5.65,3,8.82,8.82,0,0,1,2.63,3.14A9.44,9.44,0,0,1,267.18,88Z"/><path class="cls-1" d="M299.58,73.09q0,5.48-3.59,8.4t-10.22,2.92h-3.64v13.1h-5.72v-35h10.08q6.56,0,9.83,2.68T299.58,73.09Zm-17.45,6.51h3q4.41,0,6.46-1.53a5.57,5.57,0,0,0,2.06-4.79,5.44,5.44,0,0,0-1.84-4.5Q290,67.3,286.1,67.3h-4Z"/><path class="cls-1" d="M340.11,80q0,8.55-4.27,13.29T323.73,98q-7.93,0-12.18-4.7T307.3,79.92q0-8.67,4.27-13.31T323.78,62q7.81,0,12.07,4.72T340.11,80Zm-26.72,0q0,6.47,2.61,9.8t7.73,3.34q5.1,0,7.7-3.3T334,80q0-6.44-2.57-9.77t-7.67-3.33q-5.15,0-7.77,3.33T313.38,80Z"/><path class="cls-1" d="M355.8,83.53v14h-5.72v-35H360q6.78,0,10,2.54t3.26,7.66q0,6.54-6.8,9.31l9.89,15.49h-6.51l-8.38-14Zm0-4.74h4q4,0,5.79-1.48a5.38,5.38,0,0,0,1.8-4.41,4.74,4.74,0,0,0-1.94-4.26,10.64,10.64,0,0,0-5.84-1.29H355.8Z"/><path class="cls-1" d="M405.59,97.51l-3.5-9.72H388.71l-3.42,9.72h-6l13.1-35.15h6.23l13.1,35.15Zm-5-14.65-3.28-9.53q-.36-1-1-3t-.87-3a53.61,53.61,0,0,1-1.89,6.44l-3.16,9.12Z"/><path class="cls-2" d="M54.74,109.47a54.74,54.74,0,1,1,54.74-54.74A54.8,54.8,0,0,1,54.74,109.47ZM54.74,7a47.74,47.74,0,1,0,47.74,47.74A47.79,47.79,0,0,0,54.74,7Z"/><polygon class="cls-2" points="125.93 9.31 120.98 4.36 54.06 71.28 29.64 46.87 24.69 51.82 54.06 81.18 59.01 76.23 59.01 76.23 125.93 9.31"/></g></g></svg>