<?xml version="1.0" encoding="utf-8"?>
<!-- Generator: Adobe Illustrator 21.0.2, SVG Export Plug-In . SVG Version: 6.00 Build 0)  -->
<svg version="1.1" id="Layer_1" xmlns="http://www.w3.org/2000/svg" xmlns:xlink="http://www.w3.org/1999/xlink" x="0px" y="0px"
	 viewBox="0 0 2272 1124" style="enable-background:new 0 0 2272 1124;" xml:space="preserve">
<style type="text/css">
	.st0{fill:#FFFFFF;}
	.st1{fill:#FDD033;}
</style>
<g>
	<path class="st0" d="M163.8,889.6h39.6l-81.8,230.5H81.4L0,889.6h39.3L88,1032.9c2.6,6.8,5.3,15.7,8.1,26.5
		c2.9,10.7,4.7,18.7,5.6,24c1.4-8,3.5-17.2,6.4-27.8c2.9-10.5,5.2-18.3,7-23.3L163.8,889.6z"/>
	<path class="st0" d="M441.6,1004.6c0,37.5-9.5,66.7-28.6,87.5c-19,20.8-45.8,31.2-80.6,31.2c-35.2,0-62.3-10.3-81.3-30.9
		c-18.8-20.7-28.3-50.1-28.3-88.1c0-38,9.5-67.3,28.4-87.7c19.1-20.4,46.2-30.6,81.4-30.6c34.7,0,61.5,10.4,80.5,31.1
		C432.1,937.8,441.6,966.9,441.6,1004.6z M263.3,1004.6c0,28.4,5.8,49.9,17.4,64.6c11.6,14.6,28.8,21.9,51.6,21.9
		c22.7,0,39.8-7.3,51.3-21.8c11.6-14.5,17.4-36.1,17.4-64.8c0-28.3-5.7-49.7-17.2-64.3c-11.4-14.6-28.4-21.9-51.1-21.9
		c-22.9,0-40.2,7.3-51.9,21.9C269.1,954.9,263.3,976.3,263.3,1004.6z"/>
	<path class="st0" d="M572.3,1120.1h-38.2V922h-68.7v-32.3H641V922h-68.7V1120.1z"/>
	<path class="st0" d="M872.2,1001.9c0,38-10.7,67.2-32.1,87.3c-21.4,20.1-52.2,30.1-92.5,30.1h-65.3V888.8h72.2
		c37.2,0,66.1,9.9,86.7,29.6C861.8,938.2,872.2,966,872.2,1001.9z M831.9,1003.1c0-55.2-26.1-82.8-78.4-82.8h-33.1v167.3h27.1
		C803.8,1087.6,831.9,1059.5,831.9,1003.1z"/>
	<path class="st0" d="M922.5,1119.3V888.8h38.2v230.5H922.5z"/>
	<path class="st0" d="M1167.3,1119.3l-23.3-64h-89.3l-22.8,64h-40.2l87.4-231.4h41.5l87.3,231.4H1167.3z M1133.9,1022.8l-21.9-62.7
		c-1.6-4.2-3.8-10.8-6.7-19.9c-2.8-9-4.7-15.7-5.8-19.9c-2.9,12.9-7.1,27.1-12.6,42.4l-21.1,60.1H1133.9z"/>
	<path class="st0" d="M1373.3,1056.7c0,20.5-7.5,36.6-22.5,48.2c-15,11.7-35.7,17.5-62.1,17.5s-48-4-64.8-12.1v-35.6
		c10.7,4.9,21.9,8.8,33.9,11.7c12,2.8,23.2,4.3,33.5,4.3c15.1,0,26.3-2.8,33.4-8.5c7.2-5.7,10.9-13.3,10.9-22.9
		c0-8.6-3.3-15.9-9.9-21.9c-6.6-6-20.2-13.1-40.9-21.3c-21.3-8.5-36.3-18.2-45-29.2c-8.7-10.9-13.1-24.1-13.1-39.4
		c0-19.2,6.9-34.4,20.8-45.4c13.8-11,32.4-16.6,55.7-16.6c22.4,0,44.6,4.8,66.8,14.5l-12.1,30.7c-20.8-8.6-39.3-12.9-55.6-12.9
		c-12.3,0-21.7,2.7-28.1,8c-6.4,5.3-9.6,12.2-9.6,21c0,6,1.3,11.1,3.8,15.5c2.6,4.2,6.8,8.2,12.6,12c5.9,3.8,16.4,8.8,31.6,15
		c17.1,7,29.7,13.6,37.7,19.7c8,6.1,13.8,13,17.6,20.7C1371.4,1037.3,1373.3,1046.3,1373.3,1056.7z"/>
	<path class="st0" d="M1573.1,958.5c0,24.1-8,42.5-24,55.3c-16,12.8-38.7,19.2-68.2,19.2h-24.3v86.2h-38.2V888.8h67.2
		c29.2,0,51,5.9,65.5,17.7C1565.8,918.3,1573.1,935.6,1573.1,958.5z M1456.7,1001.4h20.3c19.6,0,34-3.4,43.1-10.1
		c9.1-6.7,13.7-17.2,13.7-31.5c0-13.2-4.1-23.1-12.3-29.6c-8.2-6.5-21-9.8-38.3-9.8h-26.5V1001.4z"/>
	<path class="st0" d="M1827,1003.8c0,37.5-9.5,66.7-28.6,87.5c-19,20.8-45.8,31.2-80.7,31.2c-35.2,0-62.3-10.3-81.3-30.9
		c-18.8-20.7-28.3-50.1-28.3-88.1c0-38,9.5-67.3,28.4-87.7c19.1-20.4,46.2-30.6,81.4-30.6c34.7,0,61.5,10.4,80.5,31.1
		C1817.5,937,1827,966.1,1827,1003.8z M1648.8,1003.8c0,28.4,5.8,49.9,17.4,64.6c11.6,14.6,28.8,21.9,51.6,21.9
		c22.7,0,39.8-7.3,51.3-21.8c11.6-14.5,17.4-36.1,17.4-64.8c0-28.3-5.8-49.7-17.3-64.3c-11.4-14.6-28.4-21.9-51.1-21.9
		c-22.9,0-40.2,7.3-51.9,21.9C1654.6,954.1,1648.8,975.5,1648.8,1003.8z"/>
	<path class="st0" d="M1915.3,996h26.5c17.8,0,30.7-3.3,38.6-9.8c8-6.5,12-16.2,12-29c0-13-4.3-22.4-12.9-28.1
		c-8.6-5.7-21.6-8.5-39-8.5h-25.2V996z M1915.3,1027.3v92.1h-38.2V888.8h65.9c30.1,0,52.4,5.6,66.9,16.7
		c14.5,11.1,21.7,28,21.7,50.5c0,28.7-15.1,49.1-45.3,61.3l66,102h-43.4l-55.9-92.1H1915.3z"/>
	<path class="st0" d="M2231.2,1119.3l-23.3-64h-89.3l-22.8,64h-40.3l87.4-231.4h41.5l87.4,231.4H2231.2z M2197.8,1022.8l-21.9-62.7
		c-1.6-4.2-3.8-10.8-6.7-19.9c-2.8-9-4.7-15.7-5.8-19.9c-2.9,12.9-7.1,27.1-12.6,42.4l-21.1,60.1H2197.8z"/>
</g>
<g>
	<path class="st1" d="M1130.3,46.1c-175.8,0-318.4,140.7-318.4,314.3c0,173.6,142.5,314.3,318.4,314.3
		c175.8,0,318.4-140.7,318.4-314.3C1448.7,186.8,1306.1,46.1,1130.3,46.1z M765.2,360.4C765.2,161.4,928.7,0,1130.3,0
		c201.6,0,365.1,161.4,365.1,360.4c0,199-163.4,360.4-365.1,360.4C928.7,720.8,765.2,559.5,765.2,360.4z"/>
	<polygon class="st1" points="1605.3,61 1572.3,28.4 1125.7,469.3 962.9,308.6 929.9,341.1 1125.7,534.5 1139.8,520.6 1139.8,520.6 
			"/>
</g>
</svg>
