<svg width="2272" height="1124" viewBox="0 0 2272 1124" fill="none" xmlns="http://www.w3.org/2000/svg">
<path d="M163.847 889.642H203.452L121.688 1120.13H81.4445L0 889.642H39.285L87.992 1032.95C90.5471 1039.78 93.262 1048.61 96.1365 1059.44C99.011 1070.16 100.874 1078.15 101.726 1083.4C103.11 1075.41 105.239 1066.16 108.114 1055.65C110.988 1045.14 113.33 1037.36 115.14 1032.32L163.847 889.642Z" fill="#383838"/>
<path d="M441.557 1004.57C441.557 1042.09 432.029 1071.26 412.972 1092.07C394.021 1112.88 367.139 1123.29 332.326 1123.29C297.086 1123.29 269.991 1112.99 251.041 1092.39C232.197 1071.68 222.775 1042.3 222.775 1004.26C222.775 966.21 232.25 936.991 251.2 916.601C270.257 896.211 297.406 886.016 332.645 886.016C367.352 886.016 394.181 896.368 413.131 917.074C432.082 937.779 441.557 966.946 441.557 1004.57ZM263.337 1004.57C263.337 1032.95 269.14 1054.5 280.744 1069.21C292.349 1083.82 309.542 1091.13 332.326 1091.13C355.002 1091.13 372.09 1083.87 383.588 1069.37C395.192 1054.86 400.994 1033.27 400.994 1004.57C400.994 976.3 395.245 954.859 383.747 940.249C372.356 925.64 355.322 918.335 332.645 918.335C309.755 918.335 292.455 925.64 280.744 940.249C269.14 954.859 263.337 976.3 263.337 1004.57Z" fill="#383838"/>
<path d="M572.347 1120.13H534.18V921.961H465.511V889.642H641.016V921.961H572.347V1120.13Z" fill="#383838"/>
<path d="M872.174 1001.88C872.174 1039.92 861.475 1069.04 840.076 1089.22C818.676 1109.29 787.855 1119.33 747.612 1119.33H682.297V888.837H754.479C791.635 888.837 820.54 898.717 841.193 918.476C861.847 938.236 872.174 966.035 872.174 1001.88ZM831.931 1003.14C831.931 947.958 805.794 920.368 753.521 920.368H720.464V1087.64H747.612C803.825 1087.64 831.931 1059.47 831.931 1003.14Z" fill="#383838"/>
<path d="M922.478 1119.33V888.837H960.645V1119.33H922.478Z" fill="#383838"/>
<path d="M1167.29 1119.33L1143.98 1055.32H1054.71L1031.87 1119.33H991.626L1078.98 887.891H1120.5L1207.85 1119.33H1167.29ZM1133.91 1022.84L1112.04 960.097C1110.44 955.893 1108.2 949.271 1105.33 940.232C1102.56 931.194 1100.64 924.572 1099.58 920.368C1096.71 933.296 1092.5 947.432 1086.96 962.777L1065.88 1022.84H1133.91Z" fill="#383838"/>
<path d="M1373.3 1056.74C1373.3 1077.24 1365.79 1093.32 1350.78 1104.98C1335.77 1116.65 1315.06 1122.48 1288.66 1122.48C1262.26 1122.48 1240.64 1118.44 1223.82 1110.34V1074.71C1234.47 1079.65 1245.75 1083.54 1257.68 1086.38C1269.71 1089.22 1280.89 1090.64 1291.21 1090.64C1306.33 1090.64 1317.46 1087.8 1324.59 1082.12C1331.83 1076.45 1335.45 1068.83 1335.45 1059.26C1335.45 1050.64 1332.15 1043.34 1325.55 1037.35C1318.95 1031.36 1305.32 1024.26 1284.67 1016.06C1263.37 1007.55 1248.36 997.829 1239.63 986.899C1230.9 975.968 1226.54 962.83 1226.54 947.485C1226.54 928.251 1233.46 913.116 1247.3 902.08C1261.14 891.044 1279.72 885.526 1303.03 885.526C1325.39 885.526 1347.64 890.361 1369.78 900.03L1357.65 930.773C1336.89 922.155 1318.36 917.845 1302.07 917.845C1289.72 917.845 1280.35 920.526 1273.97 925.886C1267.58 931.141 1264.39 938.13 1264.39 946.854C1264.39 952.845 1265.66 957.995 1268.22 962.304C1270.77 966.508 1274.98 970.502 1280.83 974.286C1286.69 978.07 1297.23 983.062 1312.45 989.263C1329.59 996.305 1342.16 1002.87 1350.14 1008.97C1358.13 1015.07 1363.98 1021.95 1367.71 1029.62C1371.43 1037.3 1373.3 1046.33 1373.3 1056.74Z" fill="#383838"/>
<path d="M1573.08 958.521C1573.08 982.589 1565.09 1001.04 1549.12 1013.86C1533.15 1026.68 1510.42 1033.09 1480.93 1033.09H1456.66V1119.33H1418.49V888.837H1485.72C1514.89 888.837 1536.72 894.723 1551.2 906.494C1565.78 918.266 1573.08 935.608 1573.08 958.521ZM1456.66 1001.4H1476.94C1496.53 1001.4 1510.9 998.04 1520.06 991.313C1529.21 984.586 1533.79 974.076 1533.79 959.782C1533.79 946.539 1529.69 936.659 1521.49 930.143C1513.3 923.626 1500.52 920.368 1483.17 920.368H1456.66V1001.4Z" fill="#383838"/>
<path d="M1826.99 1003.77C1826.99 1041.29 1817.46 1070.46 1798.41 1091.27C1779.46 1112.08 1752.57 1122.48 1717.76 1122.48C1682.52 1122.48 1655.43 1112.18 1636.47 1091.58C1617.63 1070.88 1608.21 1041.5 1608.21 1003.45C1608.21 965.405 1617.68 936.186 1636.63 915.796C1655.69 895.406 1682.84 885.211 1718.08 885.211C1752.79 885.211 1779.62 895.563 1798.57 916.269C1817.52 936.974 1826.99 966.141 1826.99 1003.77ZM1648.77 1003.77C1648.77 1032.15 1654.57 1053.69 1666.18 1068.41C1677.78 1083.02 1694.98 1090.32 1717.76 1090.32C1740.44 1090.32 1757.52 1083.07 1769.02 1068.56C1780.63 1054.06 1786.43 1032.46 1786.43 1003.77C1786.43 975.495 1780.68 954.054 1769.18 939.444C1757.79 924.835 1740.76 917.53 1718.08 917.53C1695.19 917.53 1677.89 924.835 1666.18 939.444C1654.57 954.054 1648.77 975.495 1648.77 1003.77Z" fill="#383838"/>
<path d="M1915.3 996.043H1941.81C1959.59 996.043 1972.47 992.784 1980.46 986.268C1988.44 979.752 1992.44 970.082 1992.44 957.259C1992.44 944.226 1988.12 934.872 1979.5 929.197C1970.88 923.521 1957.89 920.683 1940.53 920.683H1915.3V996.043ZM1915.3 1027.26V1119.33H1877.14V888.837H1943.09C1973.22 888.837 1995.52 894.407 2010 905.548C2024.48 916.689 2031.72 933.506 2031.72 955.998C2031.72 984.691 2016.6 1005.13 1986.37 1017.33L2052.32 1119.33H2008.88L1952.99 1027.26H1915.3Z" fill="#383838"/>
<path d="M2231.18 1119.33L2207.86 1055.32H2118.59L2095.76 1119.33H2055.51L2142.87 887.891H2184.39L2271.74 1119.33H2231.18ZM2197.8 1022.84L2175.92 960.097C2174.33 955.893 2172.09 949.271 2169.22 940.232C2166.45 931.194 2164.53 924.572 2163.47 920.368C2160.59 933.296 2156.39 947.432 2150.85 962.777L2129.77 1022.84H2197.8Z" fill="#383838"/>
<path fill-rule="evenodd" clip-rule="evenodd" d="M1081.28 46.0879C905.437 46.0879 762.891 186.814 762.891 360.407C762.891 534.001 905.437 674.727 1081.28 674.727C1257.12 674.727 1399.66 534.001 1399.66 360.407C1399.66 186.814 1257.12 46.0879 1081.28 46.0879ZM716.207 360.407C716.207 161.36 879.654 0 1081.28 0C1282.9 0 1446.35 161.36 1446.35 360.407C1446.35 559.455 1282.9 720.815 1081.28 720.815C879.654 720.815 716.207 559.455 716.207 360.407Z" fill="#FDD033"/>
<path fill-rule="evenodd" clip-rule="evenodd" d="M1076.71 534.516L880.9 341.144L913.917 308.561L1109.72 501.932L1076.71 534.516Z" fill="#FDD033"/>
<path fill-rule="evenodd" clip-rule="evenodd" d="M1056.97 487.58L1522.47 27.9524L1555.49 60.5391L1089.98 520.167L1056.97 487.58Z" fill="#FDD033"/>
</svg>
